<svg xmlns="http://www.w3.org/2000/svg" viewBox="0 0 32 32" fill="none">
  <!-- Sitecore rectangle (legacy) -->
  <rect x="2" y="8" width="14" height="16" rx="2.5"
        fill="#FF6B35" opacity="0.9"/>
  <!-- Letter S -->
  <path d="M7 14.5c0-.8.6-1.3 1.5-1.3s1.5.4 1.5 1.1H11
           c0-1.3-1-2.2-2.5-2.2-1.4 0-2.5.9-2.5 2.3
           0 1.1.7 1.7 2 2l.8.3c.8.2 1.2.6 1.2 1.1
           0 .7-.6 1.2-1.5 1.2s-1.6-.5-1.6-1.3H5.7
           c0 1.4 1.1 2.3 2.8 2.3 1.5 0 2.5-.9 2.5-2.3
           0-1.1-.7-1.8-2-2.1l-.8-.3C7.4 15.1 7 14.8 7 14.5z"
        fill="white"/>

  <!-- Arrow -->
  <path d="M17.5 16 L22 16 M19.5 13.5 L22 16 L19.5 18.5"
        stroke="#8899B4" stroke-width="1.8"
        stroke-linecap="round" stroke-linejoin="round"/>

  <!-- Next.js rectangle (modern) -->
  <rect x="18" y="8" width="12" height="16" rx="2.5"
        fill="#00C9A7" opacity="0.9"/>
  <!-- Letter N -->
  <path d="M21 12.5 L21 19.5 L26 12.5 L26 19.5"
        stroke="white" stroke-width="2"
        stroke-linecap="round" stroke-linejoin="round"
        fill="none"/>
</svg>
